<svg width="1" height="1" viewBox="0 0 1 1" fill="none" xmlns="http://www.w3.org/2000/svg">
<path fill-rule="evenodd" clip-rule="evenodd" d="M0.524454 0C0.52869 0 0.532124 0.00327376 0.532124 0.00730706V0.0149602C0.532124 0.0189935 0.52869 0.0222673 0.524454 0.0222673H0.51565V0.046919C0.784546 0.0547933 1 0.265044 1 0.52331C1 0.7866 0.776155 1 0.500028 1C0.223896 1 0 0.7866 0 0.52331C0 0.265064 0.215475 0.0548174 0.48435 0.0469238V0.0222673H0.475546C0.47131 0.0222673 0.467881 0.0189935 0.467881 0.0149602V0.00730706C0.467881 0.00327376 0.47131 0 0.475546 0H0.524454ZM0.512528 0.109414V0.151242C0.512528 0.157837 0.506921 0.163183 0.500003 0.163183C0.493084 0.163183 0.487472 0.157837 0.487472 0.151242V0.109414C0.257484 0.115649 0.0723359 0.292129 0.0658209 0.511388H0.109696C0.116615 0.511388 0.122227 0.516734 0.122227 0.52333C0.122227 0.52993 0.116615 0.535276 0.109696 0.535276H0.0658209C0.0723661 0.754516 0.2575 0.931011 0.487472 0.937251V0.895423C0.487472 0.888827 0.493084 0.883476 0.500003 0.883476C0.506921 0.883476 0.512528 0.888827 0.512528 0.895423V0.937251C0.742521 0.931035 0.927634 0.754531 0.934179 0.535276H0.890304C0.883385 0.535276 0.877778 0.52993 0.877778 0.52333C0.877778 0.516734 0.883385 0.511388 0.890304 0.511388H0.934179C0.927664 0.292109 0.742541 0.115625 0.512528 0.109414ZM0.5 0.501064C0.512898 0.501064 0.523357 0.511034 0.523357 0.523331L0.522969 0.527028L0.671548 0.655118C0.67536 0.658406 0.678114 0.66266 0.67948 0.667386L0.681487 0.674337C0.682471 0.677722 0.67943 0.680928 0.675804 0.680337L0.668341 0.679125C0.663273 0.678303 0.658559 0.676121 0.654741 0.672833L0.506136 0.544719C0.50417 0.545238 0.502138 0.545598 0.5 0.545598C0.487106 0.545598 0.476642 0.535628 0.476642 0.523331C0.476642 0.511034 0.487106 0.501064 0.5 0.501064Z" fill="white"/>
</svg>
